PathFileType	4	(X/Y/Z)	Run_400 02
DataRate	CameraRate	NumFrames	NumMarkers	Units	OrigDataRate	OrigDataStartFrame	OrigNumFrames
100	100	5	42	mm	100	77	128
Frame#	Time	LASI			RASI			LPSI			RPSI			RTH1			RTH3			LTH1			LTH2			LTH3			RTB1			RTB2			LTB1			LTB2			RCAL			RTOE			LCAL			LTOE			LACR			RACR			CLAV			C7			RUA1			RUA2			RUA3			RLEL			RMEL			LUA1			LUA2			LUA3			LLEL			LMEL			RFAsuperior			RFAradius			RFAulna			LFAsuperior			LFAradius			LFAulna			RTH2			RTB3			RMT5			LMT5			LTB3			
		X1	Y1	Z1	X2	Y2	Z2	X3	Y3	Z3	X4	Y4	Z4	X5	Y5	Z5	X6	Y6	Z6	X7	Y7	Z7	X8	Y8	Z8	X9	Y9	Z9	X10	Y10	Z10	X11	Y11	Z11	X12	Y12	Z12	X13	Y13	Z13	X14	Y14	Z14	X15	Y15	Z15	X16	Y16	Z16	X17	Y17	Z17	X18	Y18	Z18	X19	Y19	Z19	X20	Y20	Z20	X21	Y21	Z21	X22	Y22	Z22	X23	Y23	Z23	X24	Y24	Z24	X25	Y25	Z25	X26	Y26	Z26	X27	Y27	Z27	X28	Y28	Z28	X29	Y29	Z29	X30	Y30	Z30	X31	Y31	Z31	X32	Y32	Z32	X33	Y33	Z33	X34	Y34	Z34	X35	Y35	Z35	X36	Y36	Z36	X37	Y37	Z37	X38	Y38	Z38	X39	Y39	Z39	X40	Y40	Z40	X41	Y41	Z41	X42	Y42	Z42	

74	0.92	779.845568	966.004644	-447.737888	767.616754	979.285795	-201.569082	596.120749	1053.822599	-380.575366	590.592741	1055.553742	-297.641652	720.421515	851.862916	-142.453009	764.786525	612.77167	-192.394229	724.389193	849.853524	-515.127287	788.439296	732.725174	-492.977307	712.1807659999999	600.667236	-498.557535	832.80425	377.444129	-274.515086	761.217834	285.222287	-237.179968	623.658822	459.176254	-433.04074	556.281568	532.994937	-497.005396	603.460504	83.37828399999999	-346.365417	841.081281	67.267149	-313.907503	326.965958	674.1017419999999	-392.818605	238.211096	459.893719	-416.468383	782.874238	1509.863491	-469.39064	727.179186	1472.712131	-132.770341	829.087473	1443.730589	-268.144092	698.774631	1526.926378	-321.592304	642.396389	1373.839186	-60.770479	559.925266	1318.820706	-100.797009	576.4423389999999	1276.140644	-39.95715	534.958677	1190.118017	-17.629592	509.712299	1178.482063	-94.95059500000001	747.12818	1423.077552	-578.273466	674.2853720000001	1350.489066	-589.131885	729.029038	1321.030126	-642.834355	731.373653	1239.487565	-684.343093	659.622416	1214.398979	-656.650182	578.0615	1119.577666	-15.76945	752.422207	1022.467676	-70.738158	697.672718	976.766803	-63.086006	796.076049	1144.536498	-624.965995	857.478068	1096.293652	-494.320589	831.6266910000001	1042.240283	-528.585687	807.56889	730.301089	-163.987979	762.421551	191.785286	-309.185394	795.008162	53.271995	-226.961222	217.487959	508.656766	-490.314686	426.893783	519.217193	-419.003382	
75	0.93	777.014267	961.6185	-447.564326	765.625238	974.5126739999999	-200.03889	591.695605	1052.230637	-380.473644	588.4762449999999	1053.781461	-297.049455	714.258428	847.998827	-143.282293	752.75437	607.387441	-193.696239	725.401834	847.967904	-514.617384	798.904891	735.555806	-491.250519	732.222983	599.593326	-498.5834	810.453365	369.929535	-277.448637	735.32123	280.948123	-238.828154	651.9640869999999	458.64327	-431.190474	583.969105	529.795085	-497.721666	565.2911779999999	84.882769	-346.880258	803.1157930000001	66.495144	-315.472635	349.288621	671.104091	-399.459448	268.210113	453.534132	-417.821646	781.379324	1505.234465	-468.720036	729.4391460000001	1465.484277	-130.889383	829.725321	1437.45621	-267.974476	699.835777	1523.85536	-319.411671	650.490304	1362.456934	-59.123485	567.696111	1305.49012	-96.774798	586.968382	1262.180271	-37.5232	549.6385309999999	1174.102219	-14.815515	522.474246	1161.799047	-91.342758	740.719416	1420.413007	-577.663758	665.757505	1349.050886	-585.390678	716.95302	1320.284971	-643.185716	716.772614	1239.090249	-685.894894	645.155752	1215.976974	-657.015817	596.1439370000001	1105.456739	-15.063458	772.434334	1017.279569	-75.20798600000001	720.032322	968.5062820000001	-65.983277	778.325477	1138.5485	-631.819785	841.747567	1086.202479	-513.203433	810.952773	1030.430854	-542.19357	799.51855	724.052673	-166.072685	729.654554	188.455113	-312.125764	756.3281019999999	53.31685	-227.458	248.143398	498.726941	-493.71491	454.156947	516.54085	-419.99018	
76	0.9399999999999999	775.221177	961.273091	-447.669697	763.602631	970.94308	-198.47787	587.950373	1051.997284	-380.314494	586.113962	1053.155969	-295.831269	708.489404	844.208412	-145.173195	738.9060930000001	602.634745	-193.948583	724.879941	848.096101	-514.270434	809.628036	741.862509	-488.831532	753.2139089999999	602.226638	-498.571218	785.3505249999999	363.074552	-278.776242	707.154929	277.421261	-239.519987	681.719977	460.313061	-429.224163	611.223002	527.307424	-497.564671	526.4102799999999	86.263747	-346.895668	763.949295	66.03366	-315.51154	368.207159	664.434845	-405.156627	299.651849	442.377079	-418.001417	780.088317	1502.042122	-468.285717	731.8045	1460.511933	-129.778222	830.111505	1433.597182	-268.272047	700.878482	1522.090525	-317.991013	657.487426	1354.434505	-58.735397	575.447484	1294.756474	-94.099182	598.030937	1251.05789	-36.084955	565.425211	1160.982189	-13.09258	536.396002	1147.890588	-88.65557800000001	734.239476	1419.844047	-577.2948270000001	656.887255	1350.289945	-581.649825	704.361257	1322.15964	-643.29354	701.326911	1241.724479	-687.798547	630.046226	1220.306846	-657.380745	615.485676	1094.75717	-15.196384	793.554262	1016.074627	-80.239143	743.9866960000001	964.031303	-69.785977	759.601855	1136.356919	-638.640427	824.184239	1079.24893	-529.098417	788.838575	1023.575755	-554.555443	790.370376	718.231925	-167.621726	695.520475	185.85194	-313.868484	716.951995	53.305593	-227.216402	279.702887	483.824516	-496.272923	481.334198	512.699571	-420.262249	
77	0.95	774.057959	963.843016	-448.102219	761.443525	968.256946	-197.337964	585.453213	1052.351362	-379.968809	583.793484	1053.585255	-294.516987	702.888699	841.038899	-146.728412	722.930746	598.917751	-193.671856	723.639198	849.746971	-514.162719	819.7542549999999	751.583516	-486.408829	774.313116	608.54544	-498.324854	758.012289	357.513936	-278.209298	676.495471	275.346007	-239.747027	711.604747	464.263638	-426.830071	637.433999	525.734799	-496.404625	487.41088	88.71015300000001	-346.977776	723.985502	65.60727900000001	-314.630498	384.574266	653.779241	-409.401216	332.264895	426.977071	-417.104463	778.473709	1500.896297	-468.066333	734.217493	1458.202722	-128.977615	830.408416	1432.039777	-268.863553	701.133287	1521.446045	-317.026052	662.863311	1349.513707	-58.889821	582.710617	1285.958447	-92.03846799999999	609.431393	1242.878607	-35.377882	581.572786	1151.069278	-12.625545	551.070517	1137.276338	-87.254786	727.430255	1421.797487	-577.114607	647.523095	1354.658726	-578.792983	691.726097	1326.870743	-643.345692	685.375226	1247.488899	-689.825828	614.533403	1227.68323	-657.611729	635.155038	1087.876392	-16.361062	815.039406	1019.077928	-86.1859	768.771735	963.947626	-74.38450400000001	740.200026	1137.935205	-645.0804419999999	804.736539	1073.17145	-537.6564959999999	766.120905	1021.79262	-564.656258	779.4972770000001	712.9236090000001	-168.041912	660.398923	184.458004	-314.124488	676.925613	53.191349	-226.971391	311.760029	464.993738	-497.682531	507.993634	507.677058	-419.883458	
78	0.96	772.8785810000001	967.265257	-448.81829	759.187669	966.297241	-197.023822	584.1758620000001	1053.564012	-379.606997	581.924545	1055.069825	-293.78328	696.806155	839.176867	-147.116164	704.582223	596.640748	-193.55269	723.00338	853.0835070000001	-514.2957	828.6538399999999	764.216764	-484.627188	794.573696	618.333612	-497.635087	729.074805	353.74788	-276.546644	643.95935	275.142803	-239.83613	740.251488	470.225053	-423.672863	662.426253	525.426043	-494.490595	448.688306	93.202493	-347.134299	683.6912600000001	65.08556	-313.731231	399.368554	638.910741	-411.787445	366.120126	408.095982	-415.464157	776.190522	1502.175344	-468.012422	736.631108	1458.677806	-128.282649	830.653633	1432.639645	-269.703859	700.542894	1522.128843	-316.328403	667.323861	1347.38057	-59.117971	589.728382	1279.198893	-90.417907	620.800621	1237.748477	-35.307509	597.364887	1144.518313	-13.255259	566.0079030000001	1130.106766	-87.26818400000001	720.147337	1426.391656	-576.955358	637.903672	1362.136419	-577.197279	679.44616	1334.317095	-643.567425	669.326955	1256.062383	-691.655357	598.872556	1238.03339	-657.5377120000001	654.325507	1084.774909	-18.59527	836.076185	1026.331199	-93.25875600000001	793.5163700000001	968.525757	-79.66922599999999	720.550147	1143.064123	-650.585832	784.363068	1068.754614	-539.425958	743.7258430000001	1024.840822	-572.035585	766.601801	708.292538	-167.554315	624.588306	184.699794	-313.318347	636.437035	53.01491	-227.082992	344.040762	443.042817	-497.629595	533.948964	501.226175	-418.628979	
